<?xml version="1.0" standalone="no"?>
<!DOCTYPE svg PUBLIC "-//W3C//DTD SVG 20010904//EN"
 "http://www.w3.org/TR/2001/REC-SVG-20010904/DTD/svg10.dtd">
<svg version="1.0" xmlns="http://www.w3.org/2000/svg"
 width="478.000000pt" height="418.000000pt" viewBox="0 0 478.000000 418.000000"
 preserveAspectRatio="xMidYMid meet">

<g transform="translate(0.000000,418.000000) scale(0.100000,-0.100000)"
fill="#ffffff" stroke="none">
<path d="M2420 4174 c-19 -2 -80 -9 -135 -15 -518 -54 -1064 -285 -1540 -652
-111 -85 -235 -259 -235 -329 0 -37 24 -84 51 -99 25 -13 18 -20 -43 -43 -60
-22 -136 -89 -159 -141 -10 -22 -19 -59 -19 -82 0 -34 -8 -51 -43 -95 -104
-127 -201 -296 -246 -425 -26 -77 -51 -218 -51 -288 0 -80 27 -215 60 -307 52
-143 188 -345 314 -467 l45 -44 20 24 20 24 -34 35 c-74 77 -96 291 -45 437
105 301 541 619 1053 767 174 51 508 109 753 131 39 4 76 10 84 15 25 16 -27
30 -112 30 -96 0 -462 -26 -558 -40 -36 -5 -90 -10 -120 -10 -63 0 -217 31
-272 54 -21 9 -54 16 -75 16 l-37 0 36 -37 c44 -48 49 -62 33 -100 -23 -55
-89 -75 -157 -48 -16 6 -18 1 -18 -40 0 -58 -22 -107 -64 -141 -17 -14 -85
-61 -151 -104 -181 -117 -374 -325 -427 -460 -33 -84 -37 -244 -8 -329 11 -35
19 -65 17 -67 -7 -7 -120 144 -165 220 -90 149 -140 341 -128 487 17 207 114
422 287 635 53 66 57 74 52 111 -15 113 108 200 333 235 68 11 70 12 66 38 -4
26 -6 27 -82 33 -126 8 -165 37 -141 104 60 166 361 402 776 608 353 175 669
264 1055 296 283 23 641 -16 919 -101 107 -33 281 -100 353 -136 37 -19 71
-34 76 -34 5 0 14 12 20 26 12 25 11 26 -75 66 -249 114 -494 186 -763 223
-111 15 -449 28 -520 19z"/>
<path d="M2963 3805 c429 -92 777 -205 1053 -342 163 -82 327 -182 403 -247
l25 -21 -21 30 c-29 41 -155 161 -230 218 -216 165 -515 283 -873 346 -135 24
-387 51 -462 50 -45 -1 -29 -6 105 -34z"/>
<path d="M2105 3730 c-66 -14 -196 -67 -275 -114 -75 -44 -102 -66 -312 -250
-129 -112 -246 -186 -295 -186 -38 0 -42 16 -17 58 20 35 74 73 149 106 l60
27 -41 -4 c-88 -10 -164 -67 -221 -168 -70 -125 -123 -161 -263 -182 -106 -16
-191 -51 -235 -98 l-29 -29 75 0 c95 0 229 -32 299 -72 80 -45 100 -49 174
-31 l65 16 73 -34 c68 -32 80 -34 168 -33 116 1 231 35 390 117 58 30 170 88
250 129 158 81 258 113 403 130 102 11 139 28 64 28 -77 0 -245 -29 -326 -56
-41 -14 -163 -68 -271 -121 -246 -120 -355 -162 -434 -170 -72 -6 -149 9 -186
37 l-24 18 89 27 c164 49 184 62 86 57 -80 -5 -147 25 -206 90 -25 28 -45 56
-45 64 0 7 18 19 41 25 26 8 45 22 54 40 8 14 20 29 27 31 21 8 56 -9 62 -30
10 -30 -3 -50 -40 -64 -40 -14 -41 -36 -4 -55 33 -17 83 -16 123 1 90 38 125
143 73 219 -14 21 -26 42 -26 46 0 11 131 65 205 85 77 20 341 53 563 69 133
10 176 17 189 30 15 15 14 16 -12 23 -16 4 -83 0 -149 -9 -133 -19 -663 -44
-674 -32 -13 13 123 130 188 162 36 18 109 46 163 64 53 17 97 35 97 40 0 5
-1 9 -2 8 -2 -1 -21 -5 -43 -9z"/>
<path d="M3305 3439 c697 -279 1176 -645 1400 -1070 30 -57 55 -99 55 -92 0
24 -63 200 -100 278 -199 417 -603 711 -1202 875 -96 27 -284 70 -298 70 -3 0
63 -28 145 -61z"/>
<path d="M2280 3350 c-74 -10 -164 -24 -200 -30 -36 -7 -121 -14 -190 -16 -69
-1 -126 -3 -127 -3 -1 -1 4 -22 12 -48 20 -66 18 -140 -5 -190 -10 -24 -17
-43 -14 -43 3 0 72 45 154 100 168 114 259 160 375 191 69 19 108 22 277 23
108 1 195 3 193 5 -2 2 -32 9 -67 17 -85 18 -245 16 -408 -6z"/>
<path d="M3334 3100 c-150 -20 -338 -74 -574 -167 -265 -104 -379 -137 -552
-158 -54 -7 -65 -17 -42 -39 11 -12 36 -16 93 -16 78 0 140 -14 153 -34 4 -6
8 -24 8 -40 0 -22 4 -27 17 -22 91 35 327 86 503 108 137 17 619 17 763 0 91
-11 289 -46 377 -67 l25 -6 -25 14 c-50 29 -206 78 -324 102 -238 48 -614 52
-979 10 -146 -17 -177 -18 -177 -7 0 13 122 90 192 121 264 120 541 190 679
174 61 -7 62 10 1 27 -41 11 -50 11 -138 0z"/>
<path d="M711 2786 c-15 -18 1 -31 71 -55 70 -24 111 -45 171 -87 54 -39 67
-42 60 -14 -8 32 -86 96 -162 134 -74 38 -121 45 -140 22z"/>
<path d="M2920 2595 c-226 -25 -834 -156 -1120 -241 -289 -86 -580 -210 -709
-301 -42 -30 -47 -31 144 47 551 226 789 293 1252 350 393 48 790 31 1093 -45
136 -35 199 -58 335 -125 360 -176 581 -399 657 -665 18 -64 22 -104 22 -200
0 -66 -6 -138 -12 -160 l-11 -40 20 25 c72 90 113 233 113 390 0 130 -14 178
-87 305 -183 318 -484 529 -892 625 -204 48 -550 63 -805 35z"/>
<path d="M1895 2510 c-561 -127 -1032 -355 -1310 -635 -85 -85 -131 -195 -82
-195 7 0 69 48 138 107 397 342 777 545 1309 700 47 13 89 28 95 34 15 15 -61
9 -150 -11z"/>
<path d="M2700 2324 c-343 -19 -710 -85 -1135 -203 -118 -32 -216 -64 -175
-56 14 3 102 20 195 39 204 42 371 68 605 97 257 32 669 32 858 0 319 -54 537
-172 815 -441 353 -341 433 -650 259 -1001 l-48 -96 51 43 c113 98 220 254
262 379 36 110 38 256 4 365 -161 522 -720 850 -1491 873 -74 2 -164 3 -200 1z"/>
<path d="M2060 2074 c-109 -8 -515 -46 -518 -48 -1 -2 134 -6 300 -9 237 -4
335 -10 448 -27 442 -65 712 -188 944 -430 153 -161 256 -336 308 -530 33
-123 33 -357 0 -480 -35 -127 -103 -250 -186 -337 -77 -79 -74 -80 52 -21 326
155 500 386 518 692 11 177 -23 341 -106 507 -186 374 -533 584 -1090 660
-140 19 -536 32 -670 23z"/>
<path d="M1803 1808 c136 -137 204 -278 243 -498 23 -134 15 -429 -15 -549
-41 -163 -113 -271 -212 -319 -53 -26 -149 -45 -195 -40 -46 5 -33 -7 23 -23
137 -38 267 2 379 116 122 124 174 284 174 535 0 224 -56 421 -163 580 -41 60
-151 174 -207 214 -114 82 -120 78 -27 -16z"/>
<path d="M2065 1860 c10 -11 59 -48 109 -81 50 -34 111 -80 134 -103 122 -115
210 -317 263 -605 41 -226 2 -501 -103 -721 -44 -90 -62 -116 -132 -186 -63
-63 -100 -90 -166 -123 l-85 -42 60 6 c145 15 250 72 342 186 65 79 141 229
188 370 34 104 35 110 35 266 0 499 -163 780 -591 1022 -64 36 -79 39 -54 11z"/>
<path d="M2710 1584 c173 -167 280 -365 331 -610 30 -148 24 -347 -15 -477
-53 -178 -133 -295 -271 -399 -39 -30 -40 -31 -10 -24 55 12 190 85 242 131
282 248 278 776 -8 1165 -66 90 -171 190 -254 242 -108 69 -110 64 -15 -28z"/>
</g>
</svg>
